<svg width="192" height="192" viewBox="0 0 192 192" fill="none" xmlns="http://www.w3.org/2000/svg">
<path fill-rule="evenodd" clip-rule="evenodd" d="M115.915 112.012C109.634 112.012 106.135 104.754 110.047 99.8403L140.083 62.1155C143.995 57.202 140.496 49.944 134.216 49.944H63.1248C58.9827 49.944 55.6248 53.3018 55.6248 57.444V68.9048C55.6248 73.0469 58.9827 76.4048 63.1248 76.4048H77.9113C84.1576 76.4048 87.6668 83.5934 83.8246 88.5182L54.3017 126.359C50.4595 131.284 53.9687 138.473 60.215 138.473H132.669C136.811 138.473 140.169 135.115 140.169 130.973V119.512C140.169 115.37 136.811 112.012 132.669 112.012H115.915Z" fill="#077539"/>
</svg>
